HIERARCHY
ROOT Hips
{
  OFFSET 49.5577 92.2476 -26.6708
  CHANNELS 6 Xposition Yposition Zposition Zrotation Xrotation Yrotation
  JOINT Chest
  {
    OFFSET 1.23234e-007 14.8421 1.27321e-009
    CHANNELS 6 Xposition Yposition Zposition Zrotation Xrotation Yrotation
    JOINT LeftCollar
    {
      OFFSET 6.64893 27.3161 3.27471
      CHANNELS 6 Xposition Yposition Zposition Zrotation Xrotation Yrotation
      JOINT LeftUpArm
      {
        OFFSET 10.8584 2.41798 -0.945791
        CHANNELS 6 Xposition Yposition Zposition Zrotation Xrotation Yrotation
        JOINT LeftLowArm
        {
          OFFSET 3.77631 -24.5904 -1.70468
          CHANNELS 6 Xposition Yposition Zposition Zrotation Xrotation Yrotation
          JOINT LeftHand
          {
            OFFSET 1.01026 -21.1231 1.74131
            CHANNELS 6 Xposition Yposition Zposition Zrotation Xrotation Yrotation
            End Site
            {
              OFFSET 1.17583e-006 -9.81266 -2.89439e-008
            }
          }
        }
      }
    }
    JOINT RightCollar
    {
      OFFSET -6.11406 27.2248 4.23427
      CHANNELS 6 Xposition Yposition Zposition Zrotation Xrotation Yrotation
      JOINT RightUpArm
      {
        OFFSET -10.4566 2.3285 -0.910794
        CHANNELS 6 Xposition Yposition Zposition Zrotation Xrotation Yrotation
        JOINT RightLowArm
        {
          OFFSET -3.86856 -25.191 -1.74633
          CHANNELS 6 Xposition Yposition Zposition Zrotation Xrotation Yrotation
          JOINT RightHand
          {
            OFFSET -1.04759 -20.6242 1.75213
            CHANNELS 6 Xposition Yposition Zposition Zrotation Xrotation Yrotation
            End Site
            {
              OFFSET -2.03487e-006 -9.50367 -4.31372e-006
            }
          }
        }
      }
    }
    JOINT Neck
    {
      OFFSET 0.51659 29.8236 6.51843
      CHANNELS 6 Xposition Yposition Zposition Zrotation Xrotation Yrotation
      JOINT Head
      {
        OFFSET 1.16803e-007 7.47049 6.44171e-007
        CHANNELS 6 Xposition Yposition Zposition Zrotation Xrotation Yrotation
        End Site
        {
          OFFSET -4.32676e-008 16.2908 2.16786e-007
        }
      }
    }
  }
  JOINT LeftUpLeg
  {
    OFFSET 9 -3.38008e-006 -5.22997e-009
    CHANNELS 6 Xposition Yposition Zposition Zrotation Xrotation Yrotation
    JOINT LeftLowLeg
    {
      OFFSET -0.575 -51.431 3.90177
      CHANNELS 6 Xposition Yposition Zposition Zrotation Xrotation Yrotation
      JOINT LeftFoot
      {
        OFFSET 2.13082e-007 -43.5882 -3.90177
        CHANNELS 6 Xposition Yposition Zposition Zrotation Xrotation Yrotation
        End Site
        {
          OFFSET 7.44796e-007 -6.93413 15.0046
        }
      }
    }
  }
  JOINT RightUpLeg
  {
    OFFSET -9 6.86154e-007 -3.19538e-009
    CHANNELS 6 Xposition Yposition Zposition Zrotation Xrotation Yrotation
    JOINT RightLowLeg
    {
      OFFSET 0.575 -51.4311 3.90177
      CHANNELS 6 Xposition Yposition Zposition Zrotation Xrotation Yrotation
      JOINT RightFoot
      {
        OFFSET -7.46079e-007 -43.5882 -3.90177
        CHANNELS 6 Xposition Yposition Zposition Zrotation Xrotation Yrotation
        End Site
        {
          OFFSET 4.66716e-007 -6.93413 15.0046
        }
      }
    }
  }
}
MOTION
Frames:	12
Frame Time:	0.0333333
58.3729 96.2365 -20.8656 -1.10266 -8.46469 -6.05118 1.23234e-007 14.8421 1.26214e-009 2.28945 11.0334 -0.88505 6.64893 27.3161 3.27471 -2.94784 5.93879 -4.20517 10.8584 2.41798 -0.945791 22.8688 -24.0054 20.3787 3.77631 -24.5904 -1.70468 3.668 -45.6342 -27.3355 1.01026 -21.1231 1.74131 10.7488 -5.94863 1.17027 -6.11406 27.2248 4.23427 -1.96452 7.32629 3.42623 -10.4566 2.3285 -0.910794 -21.2103 -43.1917 -18.7748 -3.86856 -25.191 -1.74633 -16.1484 -11.8422 73.5154 -1.04759 -20.6242 1.75213 -21.5241 14.1633 -0.730762 0.51659 29.8236 6.51843 -1.32103 -4.91824 0.567827 1.16803e-007 7.47049 6.44171e-007 0.0738234 12.9805 0.549465 9 -3.38008e-006 -5.22957e-009 11.1555 -4.36745 12.2961 -0.575 -51.431 3.90177 1.90726 36.2794 -20.342 2.13082e-007 -43.5882 -3.90177 5.26908 -12.6066 -0.00851861 -9 6.86153e-007 -3.19822e-009 -13.401 -6.7572 -16.0502 0.575 -51.4311 3.90177 -6.92165 31.9107 15.7763 -7.46079e-007 -43.5882 -3.90177 -5.75692 -10.1564 0.153597 
58.2663 96.2939 -20.9778 -1.09628 -8.36438 -5.87493 1.23234e-007 14.8421 1.26212e-009 2.42563 11.3329 -0.937071 6.64893 27.3161 3.27471 -2.94784 5.93879 -4.20517 10.8584 2.41798 -0.945791 23.1249 -24.0536 20.5391 3.77631 -24.5904 -1.70468 3.22309 -45.9473 -27.825 1.01026 -21.1231 1.74131 10.3025 -5.84448 1.08992 -6.11406 27.2248 4.23427 -1.96452 7.32629 3.42623 -10.4566 2.3285 -0.910794 -21.351 -43.5948 -19.1762 -3.86856 -25.191 -1.74633 -15.8583 -12.4265 73.2246 -1.04759 -20.6242 1.75213 -21.8189 14.2662 -0.71693 0.51659 29.8236 6.51843 -1.4307 -5.60285 0.497709 1.16803e-007 7.47049 6.44171e-007 0.269115 13.5989 0.393446 9 -3.38008e-006 -5.22956e-009 11.2001 -4.5087 12.2679 -0.575 -51.431 3.90177 1.9688 36.1149 -20.4885 2.13082e-007 -43.5882 -3.90177 5.1979 -12.4503 -0.0157305 -9 6.86154e-007 -3.19823e-009 -13.3065 -6.77379 -16.0523 0.575 -51.4311 3.90177 -6.8414 31.7536 15.523 -7.46079e-007 -43.5882 -3.90177 -5.75742 -10.1855 0.152516 
58.1797 96.3573 -21.0768 -1.10289 -8.1932 -5.72138 1.23234e-007 14.8421 1.26211e-009 2.54648 11.5448 -0.994081 6.64893 27.3161 3.27471 -2.94784 5.93879 -4.20517 10.8584 2.41798 -0.945791 23.2985 -23.905 20.5397 3.77631 -24.5904 -1.70468 2.6287 -46.5045 -27.8385 1.01026 -21.1231 1.74131 9.71347 -5.22823 0.972951 -6.11406 27.2248 4.23427 -1.96452 7.32629 3.42623 -10.4566 2.3285 -0.910794 -21.5739 -44.055 -19.5025 -3.86856 -25.191 -1.74633 -15.6969 -12.5653 73.4968 -1.04759 -20.6242 1.75213 -21.8907 14.211 -0.723773 0.51659 29.8236 6.51843 -1.54811 -5.96641 0.506377 1.16803e-007 7.47049 6.44171e-007 0.469607 13.4467 0.310884 9 -3.38008e-006 -5.22955e-009 11.2789 -4.70067 12.2866 -0.575 -51.431 3.90177 1.99841 35.9557 -20.7549 2.13082e-007 -43.5882 -3.90177 5.14741 -12.2995 -0.0223046 -9 6.86154e-007 -3.19823e-009 -13.1826 -6.86967 -16.0074 0.575 -51.4311 3.90177 -6.7928 31.5787 15.2921 -7.46079e-007 -43.5882 -3.90177 -5.70514 -10.0339 0.157913 
58.1383 96.4088 -21.1262 -0.945508 -8.22921 -5.42032 1.23234e-007 14.8421 1.2621e-009 2.6244 11.9023 -1.35878 6.64893 27.3161 3.27471 -2.94784 5.93879 -4.20517 10.8584 2.41798 -0.945791 23.4083 -23.9213 20.574 3.77631 -24.5904 -1.70468 2.59883 -46.6149 -27.7061 1.01026 -21.1231 1.74131 9.82795 -5.19422 0.991875 -6.11406 27.2248 4.23427 -1.96452 7.32629 3.42623 -10.4566 2.3285 -0.910794 -21.714 -44.3476 -19.3391 -3.86856 -25.191 -1.74633 -15.4317 -13.1279 73.55 -1.04759 -20.6242 1.75213 -22.0922 14.2333 -0.720255 0.51659 29.8236 6.51843 -1.4929 -6.63106 0.478566 1.16803e-007 7.47049 6.44171e-007 0.0839493 13.6659 0.409752 9 -3.38008e-006 -5.22955e-009 11.1006 -4.65396 12.1267 -0.575 -51.431 3.90177 2.05299 35.6354 -20.9128 2.13082e-007 -43.5882 -3.90177 5.05783 -12.0863 -0.0315897 -9 6.86154e-007 -3.19823e-009 -13.3231 -6.75183 -16.1434 0.575 -51.4311 3.90177 -6.73166 31.5118 15.1541 -7.46079e-007 -43.5882 -3.90177 -5.6889 -10.0145 0.158569 
58.0804 96.5038 -21.1682 -0.848883 -8.03279 -5.37307 1.23234e-007 14.8421 1.26209e-009 2.66565 11.919 -1.3468 6.64893 27.3161 3.27471 -2.94784 5.93879 -4.20517 10.8584 2.41798 -0.945791 23.368 -23.91 20.5253 3.77631 -24.5904 -1.70468 2.65038 -46.6954 -27.4654 1.01026 -21.1231 1.74131 9.98202 -5.21461 1.019 -6.11406 27.2248 4.23427 -1.96452 7.32629 3.42623 -10.4566 2.3285 -0.910794 -21.6599 -44.1092 -19.1056 -3.86856 -25.191 -1.74633 -15.0738 -14.1354 73.1088 -1.04759 -20.6242 1.75213 -22.1477 14.3006 -0.711333 0.51659 29.8236 6.51843 -1.62659 -6.89373 0.309162 1.16803e-007 7.47049 6.44171e-007 0.244178 13.6471 0.168937 9 -3.38008e-006 -5.22954e-009 11.0677 -4.7325 12.1408 -0.575 -51.431 3.90177 1.98123 35.2838 -21.0091 2.13082e-007 -43.5882 -3.90177 4.96457 -11.8911 -0.0396623 -9 6.86154e-007 -3.19824e-009 -13.3415 -6.87893 -16.1772 0.575 -51.4311 3.90177 -6.67303 31.3544 15.1285 -7.46079e-007 -43.5882 -3.90177 -5.6818 -9.91474 0.162069 
58.0232 96.6832 -21.1587 -0.659696 -7.86913 -5.39331 1.23234e-007 14.8421 1.26207e-009 2.49576 11.9013 -1.41869 6.64893 27.3161 3.27471 -2.94784 5.93879 -4.20517 10.8584 2.41798 -0.945791 23.5007 -23.3597 20.4916 3.77631 -24.5904 -1.70468 2.42157 -47.3176 -27.2479 1.01026 -21.1231 1.74131 10.6675 -5.76782 1.15062 -6.11406 27.2248 4.23427 -1.96452 7.32629 3.42623 -10.4566 2.3285 -0.910794 -21.4067 -43.8085 -19.0543 -3.86856 -25.191 -1.74633 -14.6719 -15.3935 72.4493 -1.04759 -20.6242 1.75213 -21.6528 14.4348 -0.696088 0.51659 29.8236 6.51843 -1.72686 -7.25551 0.177113 1.16803e-007 7.47049 6.44171e-007 0.432556 13.7852 -0.0361779 9 -3.38008e-006 -5.22954e-009 10.8743 -4.66309 12.0527 -0.575 -51.431 3.90177 1.90781 34.7422 -20.9713 2.13082e-007 -43.5882 -3.90177 4.71515 -11.3936 -0.0591524 -9 6.86154e-007 -3.19824e-009 -13.4476 -6.90846 -16.2501 0.575 -51.4311 3.90177 -6.59629 31.0354 15.1031 -7.46079e-007 -43.5882 -3.90177 -5.63552 -9.68424 0.170021 
57.9134 96.8947 -21.0946 -0.476162 -7.77606 -5.58688 1.23234e-007 14.8421 1.26206e-009 2.22525 11.9299 -1.28249 6.64893 27.3161 3.27471 -2.94784 5.93879 -4.20517 10.8584 2.41798 -0.945791 23.8535 -22.4151 20.6762 3.77631 -24.5904 -1.70468 1.49916 -49.1852 -27.7422 1.01026 -21.1231 1.74131 11.8975 -5.6704 1.36118 -6.11406 27.2248 4.23427 -1.96452 7.32629 3.42623 -10.4566 2.3285 -0.910794 -21.4464 -43.1061 -19.3258 -3.86856 -25.191 -1.74633 -13.7824 -17.4209 72.2268 -1.04759 -20.6242 1.75213 -21.4135 14.5245 -0.686008 0.51659 29.8236 6.51843 -1.76525 -7.65239 -0.0348131 1.16803e-007 7.47049 6.44171e-007 0.66152 14.0137 -0.310713 9 -3.38008e-006 -5.22953e-009 10.6715 -4.26301 11.9931 -0.575 -51.431 3.90177 1.79315 33.8386 -20.7654 2.13082e-007 -43.5882 -3.90177 4.49047 -10.9673 -0.0740557 -9 6.86154e-007 -3.19824e-009 -13.5039 -6.80265 -16.2695 0.575 -51.4311 3.90177 -6.50174 30.5423 15.2545 -7.46079e-007 -43.5882 -3.90177 -5.63478 -9.50941 0.176126 
57.7341 97.1501 -21.0103 -0.356595 -7.57746 -5.95957 1.23234e-007 14.8421 1.26205e-009 1.99041 11.8294 -1.11544 6.64893 27.3161 3.27471 -2.94784 5.93879 -4.20517 10.8584 2.41798 -0.945791 24.2686 -20.912 21.2087 3.77631 -24.5904 -1.70468 0.052454 -52.2027 -27.8942 1.01026 -21.1231 1.74131 14.6458 -5.54346 1.83177 -6.11406 27.2248 4.23427 -1.96452 7.32629 3.42623 -10.4566 2.3285 -0.910794 -21.4543 -42.5803 -19.1934 -3.86856 -25.191 -1.74633 -13.0217 -19.5018 71.7069 -1.04759 -20.6242 1.75213 -21.6902 14.6017 -0.674728 0.51659 29.8236 6.51843 -1.72101 -7.79974 -0.123533 1.16803e-007 7.47049 6.44171e-007 0.715434 13.921 -0.396286 9 -3.38008e-006 -5.22953e-009 10.5796 -3.76535 12.0705 -0.575 -51.431 3.90177 1.59164 32.6437 -20.4155 2.13082e-007 -43.5882 -3.90177 4.27595 -10.5474 -0.086838 -9 6.86154e-007 -3.19824e-009 -13.4384 -6.86508 -16.2542 0.575 -51.4311 3.90177 -6.36846 30.0787 15.2584 -7.46079e-007 -43.5882 -3.90177 -5.61304 -9.33677 0.182018 
57.3554 97.4878 -20.9844 -0.535413 -7.14716 -6.27711 1.23234e-007 14.8421 1.26205e-009 2.1045 11.4319 -0.946993 6.64893 27.3161 3.27471 -2.94784 5.93879 -4.20517 10.8584 2.41798 -0.945791 24.8354 -19.2847 21.8207 3.77631 -24.5904 -1.70468 -1.89767 -56.0662 -27.6496 1.01026 -21.1231 1.74131 17.0062 -5.12017 2.20429 -6.11406 27.2248 4.23427 -1.96452 7.32629 3.42623 -10.4566 2.3285 -0.910794 -21.5299 -41.7911 -18.8064 -3.86856 -25.191 -1.74633 -12.0278 -22.42 70.5637 -1.04759 -20.6242 1.75213 -21.3572 14.782 -0.654355 0.51659 29.8236 6.51843 -2.07945 -7.94354 -0.292837 1.16803e-007 7.47049 6.44171e-007 1.10176 13.9337 -0.760516 9 -3.38008e-006 -5.22953e-009 10.7642 -3.50117 12.0769 -0.575 -51.431 3.90177 1.68167 31.2861 -20.0765 2.13082e-007 -43.5882 -3.90177 3.89947 -9.85379 -0.104498 -9 6.86154e-007 -3.19825e-009 -12.9702 -7.11781 -16.2127 0.575 -51.4311 3.90177 -6.0206 29.6538 14.7261 -7.46079e-007 -43.5882 -3.90177 -5.45706 -8.77654 0.199122 
56.7788 97.8838 -21.0721 -0.669387 -6.43283 -6.45643 1.23234e-007 14.8421 1.26204e-009 2.20879 10.7279 -0.805681 6.64893 27.3161 3.27471 -2.94784 5.93879 -4.20517 10.8584 2.41798 -0.945791 25.9311 -17.9617 22.7181 3.77631 -24.5904 -1.70468 -4.33497 -60.5645 -28.4731 1.01026 -21.1231 1.74131 16.8414 -3.42897 2.03991 -6.11406 27.2248 4.23427 -1.96452 7.32629 3.42623 -10.4566 2.3285 -0.910794 -21.4142 -41.2897 -18.4249 -3.86856 -25.191 -1.74633 -10.911 -25.7298 69.52 -1.04759 -20.6242 1.75213 -21.0737 14.8635 -0.646649 0.51659 29.8236 6.51843 -2.13483 -7.68525 -0.432714 1.16803e-007 7.47049 6.44171e-007 1.07083 13.3434 -0.892248 9 -3.38008e-006 -5.22953e-009 11.0418 -3.50714 12.0628 -0.575 -51.431 3.90177 1.83051 29.7494 -20.1894 2.13082e-007 -43.5882 -3.90177 3.44131 -8.97773 -0.12016 -9 6.86154e-007 -3.19825e-009 -12.3753 -7.70594 -16.2195 0.575 -51.4311 3.90177 -5.60518 29.3095 13.331 -7.46079e-007 -43.5882 -3.90177 -5.11174 -7.82049 0.223843 
55.9355 98.3165 -21.1653 -0.663979 -5.9442 -6.18913 1.23234e-007 14.8421 1.26203e-009 2.06371 10.4198 -0.864215 6.64893 27.3161 3.27471 -2.94784 5.93879 -4.20517 10.8584 2.41798 -0.945791 27.9725 -17.4869 23.0199 3.77631 -24.5904 -1.70468 -7.16442 -65.2205 -30.0904 1.01026 -21.1231 1.74131 15.8273 -1.96662 1.77325 -6.11406 27.2248 4.23427 -1.96452 7.32629 3.42623 -10.4566 2.3285 -0.910794 -21.4088 -40.8955 -17.9151 -3.86856 -25.191 -1.74633 -9.18303 -29.71 69.2338 -1.04759 -20.6242 1.75213 -20.3209 14.8776 -0.652038 0.51659 29.8236 6.51843 -2.2099 -7.88503 -0.72892 1.16803e-007 7.47049 6.44171e-007 1.27163 12.8065 -1.23794 9 -3.38008e-006 -5.22953e-009 11.378 -3.25688 12.1509 -0.575 -51.431 3.90177 1.89697 27.8322 -20.6745 2.13082e-007 -43.5882 -3.90177 2.87887 -7.80294 -0.132148 -9 6.86154e-007 -3.19825e-009 -11.7675 -7.84867 -16.4387 0.575 -51.4311 3.90177 -4.98802 28.8202 10.9261 -7.46079e-007 -43.5882 -3.90177 -4.82448 -7.33332 0.231304 
54.8369 98.7504 -21.3229 -0.731568 -5.34495 -5.65875 1.23234e-007 14.8421 1.26202e-009 1.88232 10.0926 -1.11519 6.64893 27.3161 3.27471 -2.94784 5.93879 -4.20517 10.8584 2.41798 -0.945791 30.696 -17.6846 22.3198 3.77631 -24.5904 -1.70468 -10.71 -69.7554 -32.0774 1.01026 -21.1231 1.74131 15.0334 -1.1413 1.60482 -6.11406 27.2248 4.23427 -1.96452 7.32629 3.42623 -10.4566 2.3285 -0.910794 -20.6596 -41.7853 -16.5332 -3.86856 -25.191 -1.74633 -8.41998 -31.9751 68.3787 -1.04759 -20.6242 1.75213 -19.4442 14.9716 -0.649155 0.51659 29.8236 6.51843 -2.3109 -7.76931 -0.999704 1.16803e-007 7.47049 6.44171e-007 1.61496 11.6083 -1.59916 9 -3.38008e-006 -5.22954e-009 12.0379 -3.19361 12.4916 -0.575 -51.431 3.90177 1.88927 25.8913 -21.5728 2.13082e-007 -43.5882 -3.90177 2.257 -6.4157 -0.131745 -9 6.86154e-007 -3.19825e-009 -10.9049 -7.72192 -16.4148 0.575 -51.4311 3.90177 -4.32296 27.6655 8.74459 -7.46079e-007 -43.5882 -3.90177 -4.67457 -7.21688 0.230404 
